<svg version="1.1" id="Layer_1" xmlns="http://www.w3.org/2000/svg" xmlns:xlink="http://www.w3.org/1999/xlink" x="0px" y="0px"
	 viewBox="0 0 500 500" enable-background="new 0 0 500 500" xml:space="preserve">
<rect width="100%" height="100%" fill="none"/>
<path fill="#EC650A" opacity="1.000000" stroke="none" 
	d="
M173.000000,451.002289 
	C153.667160,451.002289 134.834335,451.012482 116.001495,450.999420 
	C97.132225,450.986328 84.397461,437.272095 87.019432,418.609985 
	C90.746605,392.081482 95.271751,365.664856 99.478119,339.203979 
	C104.311584,308.798126 109.297607,278.415863 113.965698,247.984756 
	C116.551056,231.130890 127.425568,221.454651 144.612167,221.442078 
	C152.778625,221.436096 160.947159,221.545563 169.110336,221.382278 
	C171.793884,221.328583 173.340469,222.082535 174.487534,224.620865 
	C177.203812,230.631622 180.232864,236.501038 183.497421,243.166626 
	C176.968292,243.166626 171.205627,243.153763 165.443024,243.169144 
	C150.680771,243.208557 142.181351,250.481735 139.848907,265.017914 
	C136.632660,285.062317 133.398392,305.103851 129.912613,326.756866 
	C133.164169,325.548798 136.081375,325.178558 138.061310,323.618713 
	C157.427521,308.361206 176.635956,292.903503 195.894836,277.509735 
	C197.173859,276.487396 198.498276,275.521912 200.310211,274.142853 
	C203.816574,280.327789 207.133087,286.177826 210.694931,292.460602 
	C196.943115,303.461334 183.365097,314.323059 168.770844,325.997711 
	C177.218414,325.997711 184.457916,326.178528 191.685715,325.964264 
	C214.599716,325.284973 231.754578,335.017303 243.727661,354.339539 
	C244.580521,355.715881 245.542343,357.024689 246.773178,358.835144 
	C261.914368,341.285583 276.798370,324.034088 291.913025,306.515289 
	C290.068909,305.020721 288.353363,303.630341 286.372498,302.024963 
	C289.781250,296.160156 293.099396,290.451263 296.657410,284.329681 
	C318.481476,299.005432 342.394684,305.051117 368.909729,303.639160 
	C367.476074,294.369781 366.094391,285.263062 364.649567,276.166321 
	C363.892975,271.402527 363.223206,266.611969 362.169128,261.910889 
	C359.579132,250.359665 350.833801,243.361298 338.937775,243.185532 
	C332.648560,243.092621 326.356873,243.169083 319.154999,243.169083 
	C322.682831,235.948380 325.764740,229.380753 329.160522,222.979614 
	C329.650116,222.056763 331.643890,221.524811 332.950653,221.507797 
	C342.282135,221.386230 351.621979,221.232834 360.947632,221.496841 
	C374.686737,221.885788 385.646057,231.229019 387.987671,245.098541 
	C392.863464,273.978943 397.346497,302.925781 401.968170,331.848969 
	C406.484802,360.114532 410.833405,388.407837 415.522858,416.644592 
	C418.654175,435.499329 406.026855,450.989319 386.992645,450.994476 
	C315.828430,451.013855 244.664215,451.002289 173.000000,451.002289 
M183.499863,429.557831 
	C211.256607,429.557831 239.013367,429.557831 267.432831,429.557831 
	C266.627686,427.975067 266.278015,427.095703 265.771057,426.319031 
	C251.851852,404.994141 237.976578,383.640198 223.958359,362.380524 
	C217.135956,352.033844 207.451675,346.784180 194.935501,346.826599 
	C176.440155,346.889313 157.944397,346.840759 139.448822,346.839661 
	C135.319687,346.839447 131.190536,346.839630 127.132034,346.839630 
	C126.740517,347.904907 126.403839,348.504730 126.302811,349.141968 
	C123.488777,366.889832 120.464783,384.608734 117.974007,402.402222 
	C115.733047,418.411072 125.780075,429.503082 142.009567,429.549866 
	C155.506226,429.588806 169.003082,429.557587 183.499863,429.557831 
M333.500000,388.155457 
	C311.272583,388.155457 289.045135,388.155457 265.827515,388.155457 
	C274.896851,402.074524 283.376099,415.164032 292.003418,428.155182 
	C292.570587,429.009247 294.268280,429.502441 295.442108,429.506073 
	C318.102478,429.575958 340.770050,429.880676 363.421112,429.410797 
	C376.383759,429.141907 385.580719,418.452667 384.987366,405.466034 
	C384.783508,401.003876 383.462006,396.598175 383.171417,392.132812 
	C382.953766,388.788574 381.581909,388.061493 378.487854,388.091675 
	C363.826416,388.234863 349.162811,388.155579 333.500000,388.155457 
M361.450439,324.431091 
	C345.475311,324.871704 329.960693,322.281433 314.971985,316.864288 
	C311.897247,315.752991 310.511230,316.773560 308.739960,318.835175 
	C295.620514,334.105347 282.416504,349.302856 269.268707,364.548767 
	C268.603210,365.320465 268.210876,366.327759 267.677765,367.248840 
	C304.957397,367.248840 341.826202,367.248840 379.136169,367.248840 
	C377.373962,356.069000 375.599609,345.275940 373.988983,334.458496 
	C372.497620,324.441650 372.574768,324.430176 361.450439,324.431091 
z"/>
<path fill="#EC650A" opacity="1.000000" stroke="none" 
	d="
M314.122925,227.209839 
	C299.791809,252.781265 285.844604,278.147552 271.342590,303.192596 
	C261.930267,319.447662 241.921967,320.536835 232.239441,304.507416 
	C215.997452,277.618805 200.877014,250.028412 185.992172,222.352798 
	C175.906525,203.600433 167.351166,184.033539 162.004425,163.316010 
	C153.059158,128.655014 163.151840,99.047775 188.839905,75.459229 
	C216.028458,50.492828 248.559967,44.258049 283.164337,56.862164 
	C317.089661,69.218941 336.458374,94.765953 342.718567,130.281982 
	C345.567017,146.442184 342.292206,161.867996 336.298798,176.658264 
	C329.437592,193.590012 321.654144,210.148041 314.122925,227.209839 
M269.654327,93.737091 
	C251.695786,87.772850 234.931839,90.081543 219.303940,100.838676 
	C198.268677,115.317848 190.373062,143.541916 200.762436,167.442444 
	C211.097977,191.219147 237.451416,204.956726 262.197083,199.467209 
	C286.088348,194.167252 304.104218,174.471207 306.012421,151.565689 
	C308.180969,125.535011 294.520508,103.432442 269.654327,93.737091 
z"/>
<path fill="#EC650A" opacity="1.000000" stroke="none" 
	d="
M273.806976,165.775299 
	C262.615997,177.074600 247.417938,179.037201 234.860733,171.043594 
	C223.174545,163.604492 217.944168,148.716492 222.742554,135.585388 
	C227.324829,123.045616 236.729965,116.519012 249.833588,115.315216 
	C260.901306,114.298454 273.113617,121.264542 278.135010,131.520630 
	C284.072266,143.647324 282.625977,155.047089 273.806976,165.775299 
z"/>
</svg>